<svg xmlns="http://www.w3.org/2000/svg" xmlns:xlink="http://www.w3.org/1999/xlink" width="480" zoomAndPan="magnify" viewBox="0 0 360 359.999987" height="480" preserveAspectRatio="xMidYMid meet" version="1.0"><defs><clipPath id="047b51d251"><path d="M 24.074219 0 L 336.074219 0 L 336.074219 360 L 24.074219 360 Z M 24.074219 0 " clip-rule="nonzero"/></clipPath></defs><g clip-path="url(#047b51d251)"><path fill="#ffffff" d="M 24.074219 323.929688 C 24.074219 325.109375 24.132812 326.285156 24.25 327.457031 C 24.363281 328.628906 24.535156 329.792969 24.765625 330.949219 C 24.996094 332.105469 25.28125 333.246094 25.625 334.375 C 25.96875 335.503906 26.363281 336.609375 26.816406 337.699219 C 27.265625 338.789062 27.769531 339.851562 28.324219 340.890625 C 28.882812 341.929688 29.488281 342.941406 30.140625 343.921875 C 30.796875 344.898438 31.5 345.84375 32.246094 346.757812 C 32.996094 347.667969 33.785156 348.539062 34.621094 349.375 C 35.453125 350.207031 36.324219 350.996094 37.238281 351.746094 C 38.148438 352.492188 39.09375 353.191406 40.074219 353.847656 C 41.054688 354.503906 42.066406 355.109375 43.105469 355.664062 C 44.144531 356.21875 45.210938 356.722656 46.296875 357.171875 C 47.386719 357.625 48.496094 358.019531 49.625 358.363281 C 50.753906 358.703125 51.894531 358.992188 53.050781 359.21875 C 54.207031 359.449219 55.371094 359.625 56.546875 359.738281 C 57.71875 359.855469 58.894531 359.910156 60.074219 359.910156 L 228.074219 359.910156 C 229.253906 359.910156 230.429688 359.855469 231.605469 359.738281 C 232.777344 359.625 233.941406 359.449219 235.097656 359.21875 C 236.253906 358.992188 237.398438 358.703125 238.523438 358.363281 C 239.652344 358.019531 240.761719 357.625 241.851562 357.171875 C 242.941406 356.722656 244.003906 356.21875 245.046875 355.664062 C 246.085938 355.109375 247.09375 354.503906 248.074219 353.847656 C 249.054688 353.191406 250 352.492188 250.914062 351.746094 C 251.824219 350.996094 252.695312 350.207031 253.53125 349.375 C 254.363281 348.539062 255.15625 347.667969 255.902344 346.757812 C 256.652344 345.84375 257.351562 344.898438 258.007812 343.921875 C 258.664062 342.941406 259.269531 341.929688 259.824219 340.890625 C 260.378906 339.851562 260.882812 338.789062 261.335938 337.699219 C 261.785156 336.609375 262.183594 335.503906 262.523438 334.375 C 262.867188 333.246094 263.152344 332.105469 263.382812 330.949219 C 263.613281 329.792969 263.785156 328.628906 263.902344 327.457031 C 264.015625 326.285156 264.074219 325.109375 264.074219 323.929688 L 264.074219 311.933594 L 300.074219 311.933594 C 301.253906 311.933594 302.429688 311.878906 303.605469 311.761719 C 304.777344 311.648438 305.941406 311.472656 307.097656 311.242188 C 308.253906 311.015625 309.398438 310.726562 310.523438 310.386719 C 311.652344 310.042969 312.761719 309.648438 313.851562 309.195312 C 314.941406 308.746094 316.003906 308.242188 317.046875 307.6875 C 318.085938 307.132812 319.09375 306.527344 320.074219 305.871094 C 321.054688 305.214844 322 304.515625 322.914062 303.769531 C 323.824219 303.019531 324.695312 302.230469 325.53125 301.394531 C 326.363281 300.5625 327.15625 299.691406 327.902344 298.78125 C 328.652344 297.867188 329.351562 296.921875 330.007812 295.945312 C 330.664062 294.964844 331.269531 293.953125 331.824219 292.914062 C 332.378906 291.875 332.882812 290.8125 333.335938 289.722656 C 333.785156 288.632812 334.183594 287.527344 334.523438 286.398438 C 334.867188 285.269531 335.152344 284.128906 335.382812 282.972656 C 335.613281 281.816406 335.785156 280.652344 335.902344 279.480469 C 336.015625 278.308594 336.074219 277.132812 336.074219 275.953125 L 336.074219 36.070312 C 336.074219 34.890625 336.015625 33.714844 335.902344 32.542969 C 335.785156 31.371094 335.613281 30.207031 335.382812 29.050781 C 335.152344 27.894531 334.867188 26.753906 334.523438 25.625 C 334.183594 24.496094 333.785156 23.390625 333.335938 22.300781 C 332.882812 21.210938 332.378906 20.148438 331.824219 19.109375 C 331.269531 18.070312 330.664062 17.058594 330.007812 16.078125 C 329.351562 15.101562 328.652344 14.152344 327.902344 13.242188 C 327.15625 12.332031 326.363281 11.460938 325.53125 10.625 C 324.695312 9.792969 323.824219 9.003906 322.914062 8.253906 C 322 7.507812 321.054688 6.808594 320.074219 6.152344 C 319.09375 5.496094 318.085938 4.890625 317.046875 4.335938 C 316.003906 3.78125 314.941406 3.277344 313.851562 2.828125 C 312.761719 2.375 311.652344 1.980469 310.523438 1.636719 C 309.398438 1.296875 308.253906 1.007812 307.097656 0.777344 C 305.941406 0.550781 304.777344 0.375 303.605469 0.261719 C 302.429688 0.144531 301.253906 0.0898438 300.074219 0.0898438 L 132.074219 0.0898438 C 130.894531 0.0898438 129.71875 0.144531 128.546875 0.261719 C 127.371094 0.375 126.207031 0.550781 125.050781 0.777344 C 123.894531 1.007812 122.753906 1.296875 121.625 1.636719 C 120.496094 1.980469 119.386719 2.375 118.296875 2.828125 C 117.210938 3.277344 116.144531 3.78125 115.105469 4.335938 C 114.066406 4.890625 113.054688 5.496094 112.074219 6.152344 C 111.09375 6.808594 110.148438 7.507812 109.238281 8.253906 C 108.324219 9.003906 107.453125 9.792969 106.621094 10.625 C 105.785156 11.460938 104.996094 12.332031 104.246094 13.242188 C 103.5 14.152344 102.796875 15.101562 102.140625 16.078125 C 101.488281 17.058594 100.882812 18.070312 100.324219 19.109375 C 99.769531 20.148438 99.265625 21.210938 98.816406 22.300781 C 98.363281 23.390625 97.96875 24.496094 97.625 25.625 C 97.28125 26.753906 96.996094 27.894531 96.765625 29.050781 C 96.535156 30.207031 96.363281 31.371094 96.25 32.542969 C 96.132812 33.714844 96.074219 34.890625 96.074219 36.070312 L 96.074219 48.0625 L 60.074219 48.0625 C 58.894531 48.066406 57.71875 48.121094 56.546875 48.238281 C 55.371094 48.351562 54.207031 48.527344 53.050781 48.753906 C 51.894531 48.984375 50.753906 49.273438 49.625 49.613281 C 48.496094 49.957031 47.386719 50.351562 46.296875 50.804688 C 45.210938 51.253906 44.144531 51.757812 43.105469 52.3125 C 42.066406 52.867188 41.054688 53.472656 40.074219 54.128906 C 39.09375 54.785156 38.148438 55.484375 37.238281 56.230469 C 36.324219 56.980469 35.453125 57.769531 34.621094 58.601562 C 33.785156 59.4375 32.996094 60.308594 32.246094 61.21875 C 31.5 62.128906 30.796875 63.078125 30.140625 64.054688 C 29.488281 65.035156 28.882812 66.046875 28.324219 67.085938 C 27.769531 68.125 27.265625 69.1875 26.816406 70.277344 C 26.363281 71.367188 25.96875 72.472656 25.625 73.601562 C 25.28125 74.730469 24.996094 75.871094 24.765625 77.027344 C 24.535156 78.183594 24.363281 79.347656 24.25 80.519531 C 24.132812 81.691406 24.074219 82.867188 24.074219 84.046875 Z M 120.074219 36.070312 C 120.074219 35.28125 120.152344 34.503906 120.304688 33.730469 C 120.460938 32.957031 120.6875 32.207031 120.988281 31.480469 C 121.289062 30.753906 121.660156 30.0625 122.097656 29.40625 C 122.535156 28.75 123.03125 28.144531 123.589844 27.589844 C 124.148438 27.03125 124.753906 26.535156 125.40625 26.097656 C 126.0625 25.660156 126.753906 25.289062 127.484375 24.988281 C 128.210938 24.6875 128.960938 24.460938 129.734375 24.304688 C 130.507812 24.152344 131.285156 24.074219 132.074219 24.074219 L 300.074219 24.074219 C 300.863281 24.074219 301.644531 24.152344 302.417969 24.304688 C 303.1875 24.460938 303.9375 24.6875 304.667969 24.988281 C 305.394531 25.289062 306.085938 25.660156 306.742188 26.097656 C 307.398438 26.535156 308.003906 27.03125 308.558594 27.589844 C 309.117188 28.144531 309.613281 28.75 310.050781 29.40625 C 310.492188 30.0625 310.859375 30.753906 311.160156 31.480469 C 311.464844 32.207031 311.691406 32.957031 311.84375 33.730469 C 312 34.503906 312.074219 35.28125 312.074219 36.070312 L 312.074219 275.953125 C 312.074219 276.742188 312 277.519531 311.84375 278.292969 C 311.691406 279.066406 311.464844 279.816406 311.160156 280.542969 C 310.859375 281.269531 310.492188 281.960938 310.050781 282.617188 C 309.613281 283.269531 309.117188 283.878906 308.558594 284.433594 C 308.003906 284.992188 307.398438 285.488281 306.742188 285.925781 C 306.085938 286.363281 305.394531 286.734375 304.667969 287.035156 C 303.9375 287.335938 303.1875 287.5625 302.417969 287.714844 C 301.644531 287.871094 300.863281 287.945312 300.074219 287.945312 L 264.074219 287.945312 L 264.074219 84.046875 C 264.074219 82.867188 264.015625 81.691406 263.902344 80.519531 C 263.785156 79.347656 263.613281 78.183594 263.382812 77.027344 C 263.152344 75.871094 262.867188 74.730469 262.523438 73.601562 C 262.183594 72.472656 261.785156 71.367188 261.335938 70.277344 C 260.882812 69.1875 260.378906 68.125 259.824219 67.085938 C 259.269531 66.046875 258.664062 65.035156 258.007812 64.054688 C 257.351562 63.078125 256.652344 62.128906 255.902344 61.21875 C 255.15625 60.308594 254.363281 59.4375 253.53125 58.601562 C 252.695312 57.769531 251.824219 56.980469 250.914062 56.230469 C 250 55.484375 249.054688 54.785156 248.074219 54.128906 C 247.09375 53.472656 246.085938 52.867188 245.046875 52.3125 C 244.003906 51.757812 242.941406 51.253906 241.851562 50.804688 C 240.761719 50.351562 239.652344 49.957031 238.523438 49.613281 C 237.398438 49.273438 236.253906 48.984375 235.097656 48.753906 C 233.941406 48.527344 232.777344 48.351562 231.605469 48.238281 C 230.429688 48.121094 229.253906 48.066406 228.074219 48.0625 L 120.074219 48.0625 Z M 48.074219 84.046875 C 48.074219 83.257812 48.152344 82.480469 48.304688 81.707031 C 48.460938 80.933594 48.6875 80.183594 48.988281 79.457031 C 49.289062 78.730469 49.660156 78.039062 50.097656 77.382812 C 50.535156 76.726562 51.03125 76.121094 51.589844 75.566406 C 52.148438 75.007812 52.753906 74.511719 53.40625 74.074219 C 54.0625 73.636719 54.753906 73.265625 55.484375 72.964844 C 56.210938 72.664062 56.960938 72.4375 57.734375 72.28125 C 58.507812 72.128906 59.285156 72.050781 60.074219 72.050781 L 228.074219 72.050781 C 228.863281 72.050781 229.644531 72.128906 230.417969 72.28125 C 231.1875 72.4375 231.9375 72.664062 232.667969 72.964844 C 233.394531 73.265625 234.085938 73.636719 234.742188 74.074219 C 235.398438 74.511719 236.003906 75.007812 236.558594 75.566406 C 237.117188 76.121094 237.613281 76.726562 238.050781 77.382812 C 238.492188 78.039062 238.859375 78.730469 239.160156 79.457031 C 239.464844 80.183594 239.691406 80.933594 239.84375 81.707031 C 240 82.480469 240.074219 83.257812 240.074219 84.046875 L 240.074219 323.929688 C 240.074219 324.71875 240 325.496094 239.84375 326.269531 C 239.691406 327.042969 239.464844 327.792969 239.160156 328.519531 C 238.859375 329.246094 238.492188 329.9375 238.050781 330.59375 C 237.613281 331.246094 237.117188 331.855469 236.558594 332.410156 C 236.003906 332.96875 235.398438 333.464844 234.742188 333.902344 C 234.085938 334.339844 233.394531 334.710938 232.667969 335.011719 C 231.9375 335.3125 231.1875 335.539062 230.417969 335.691406 C 229.644531 335.847656 228.863281 335.921875 228.074219 335.921875 L 60.074219 335.921875 C 59.285156 335.921875 58.507812 335.847656 57.734375 335.691406 C 56.960938 335.539062 56.210938 335.3125 55.484375 335.011719 C 54.753906 334.710938 54.0625 334.339844 53.40625 333.902344 C 52.753906 333.464844 52.148438 332.96875 51.589844 332.410156 C 51.03125 331.855469 50.535156 331.246094 50.097656 330.59375 C 49.660156 329.9375 49.289062 329.246094 48.988281 328.519531 C 48.6875 327.792969 48.460938 327.042969 48.304688 326.269531 C 48.152344 325.496094 48.074219 324.71875 48.074219 323.929688 Z M 48.074219 84.046875 " fill-opacity="1" fill-rule="nonzero"/></g></svg>