<svg xmlns="http://www.w3.org/2000/svg" xmlns:xlink="http://www.w3.org/1999/xlink" width="480" zoomAndPan="magnify" viewBox="0 0 360 359.999987" height="480" preserveAspectRatio="xMidYMid meet" version="1.0"><defs><clipPath id="cba93fe240"><path d="M 176.105469 209.652344 L 219.554688 209.652344 L 219.554688 257.625 L 176.105469 257.625 Z M 176.105469 209.652344 " clip-rule="nonzero"/></clipPath><clipPath id="6d0eed2be1"><path d="M 292 102.375 L 324 102.375 L 324 134 L 292 134 Z M 292 102.375 " clip-rule="nonzero"/></clipPath></defs><path fill="#ffffff" d="M 303.996094 150.953125 C 302.648438 150.597656 301.289062 150.238281 299.914062 149.898438 L 299.914062 156.585938 C 325.273438 164.070312 340.695312 173.949219 340.695312 184.773438 C 340.695312 190.695312 336.066406 196.335938 327.714844 201.460938 C 320.382812 206.269531 309.105469 210.820312 294.488281 214.71875 C 286.332031 216.898438 277.441406 218.816406 267.949219 220.453125 C 263.605469 221.207031 259.140625 221.898438 254.558594 222.53125 L 254.558594 235.535156 C 259.113281 234.960938 263.582031 234.328125 267.949219 233.652344 C 280.933594 231.621094 293.042969 229.121094 303.996094 226.191406 C 339.972656 216.570312 359.792969 203.214844 359.792969 188.578125 C 359.792969 173.933594 339.972656 160.574219 303.996094 150.953125 Z M 206.394531 226.753906 C 199.453125 227.0625 192.394531 227.238281 185.238281 227.296875 C 183.496094 227.3125 181.75 227.320312 180 227.320312 C 178.789062 227.320312 177.574219 227.320312 176.363281 227.308594 C 134.296875 227.066406 95.054688 222.613281 65.511719 214.71875 C 50.894531 210.820312 39.617188 206.269531 32.289062 201.460938 C 23.933594 196.335938 19.304688 190.695312 19.304688 184.773438 C 19.304688 173.949219 34.726562 164.070312 60.089844 156.585938 L 60.089844 149.898438 C 58.714844 150.238281 57.351562 150.597656 56.003906 150.953125 C 20.027344 160.574219 0.207031 173.933594 0.207031 188.578125 C 0.207031 203.214844 20.027344 216.570312 56.003906 226.191406 C 88.441406 234.863281 131.0625 239.746094 176.363281 239.992188 C 177.574219 240.003906 178.789062 240.003906 180 240.003906 C 181.75 240.003906 183.496094 240 185.238281 239.984375 C 193.125 239.921875 200.917969 239.722656 208.597656 239.375 L 219.394531 233.644531 L 219.324219 233.609375 L 206.394531 226.753906 " fill-opacity="1" fill-rule="nonzero"/><path fill="#ffffff" d="M 132.519531 147.890625 C 131.464844 146.675781 130.273438 145.582031 128.941406 144.617188 C 126.136719 142.578125 122.707031 141.074219 118.667969 140.113281 C 118.296875 140.027344 117.917969 139.945312 117.539062 139.863281 L 133.816406 122.355469 L 133.816406 108.4375 L 77.019531 108.4375 L 77.019531 125.609375 L 108 125.609375 L 93.96875 140.761719 L 93.96875 154.792969 L 103.28125 154.792969 C 111.289062 154.792969 115.296875 157.335938 115.296875 162.425781 C 115.296875 165.042969 114.175781 167.066406 111.929688 168.480469 C 109.679688 169.910156 106.652344 170.617188 102.835938 170.617188 C 99.09375 170.617188 95.300781 170.058594 91.445312 168.933594 C 87.585938 167.8125 84.125 166.207031 81.0625 164.105469 L 72.980469 180.832031 C 76.949219 183.300781 81.640625 185.207031 87.066406 186.554688 C 92.488281 187.90625 97.972656 188.578125 103.507812 188.578125 C 111.066406 188.578125 117.410156 187.355469 122.535156 184.929688 C 127.664062 182.5 131.472656 179.300781 133.984375 175.332031 C 136.484375 171.367188 137.742188 167.066406 137.742188 162.425781 C 137.742188 156.742188 136.003906 151.890625 132.519531 147.890625 " fill-opacity="1" fill-rule="nonzero"/><path fill="#ffffff" d="M 187.632812 170.058594 C 185.648438 171.851562 183.085938 172.753906 179.949219 172.753906 C 176.578125 172.753906 173.898438 171.835938 171.921875 170 C 169.933594 168.167969 168.945312 165.789062 168.945312 162.871094 C 168.945312 159.882812 169.957031 157.472656 171.972656 155.632812 C 173.996094 153.804688 176.613281 152.882812 179.828125 152.882812 C 183.050781 152.882812 185.648438 153.78125 187.632812 155.574219 C 189.609375 157.375 190.609375 159.769531 190.609375 162.761719 C 190.609375 165.832031 189.609375 168.257812 187.632812 170.058594 Z M 208.507812 148.789062 C 207.035156 146.496094 205.257812 144.527344 203.167969 142.875 C 201.804688 141.796875 200.308594 140.84375 198.6875 140.03125 C 195.777344 138.574219 192.664062 137.636719 189.335938 137.214844 C 187.960938 137.035156 186.554688 136.945312 185.113281 136.945312 C 183.726562 136.945312 182.386719 137.011719 181.109375 137.152344 C 175.722656 137.734375 171.234375 139.542969 167.644531 142.5625 C 167.554688 142.636719 167.464844 142.710938 167.375 142.785156 C 167.382812 142.710938 167.390625 142.636719 167.398438 142.570312 C 167.574219 140.644531 167.917969 138.871094 168.433594 137.25 C 169.4375 133.960938 171.109375 131.277344 173.429688 129.199219 C 176.949219 126.0625 181.554688 124.484375 187.238281 124.484375 C 193.078125 124.484375 197.90625 125.832031 201.714844 128.53125 L 209.800781 112.589844 C 206.953125 110.722656 203.515625 109.300781 199.476562 108.324219 C 195.4375 107.351562 191.167969 106.867188 186.679688 106.867188 C 178.371094 106.867188 171.078125 108.546875 164.792969 111.917969 C 158.507812 115.28125 153.628906 120.207031 150.144531 126.679688 C 148.300781 130.109375 146.9375 133.894531 146.074219 138.03125 C 145.710938 139.765625 145.4375 141.566406 145.242188 143.425781 C 145.027344 145.492188 144.921875 147.636719 144.921875 149.855469 C 144.921875 162.351562 148.179688 171.925781 154.691406 178.585938 C 161.199219 185.25 170.066406 188.578125 181.292969 188.578125 C 187.050781 188.578125 192.273438 187.476562 196.949219 185.265625 C 201.625 183.054688 205.332031 179.914062 208.0625 175.839844 C 210.792969 171.761719 212.160156 167.066406 212.160156 161.75 C 212.160156 156.890625 210.941406 152.566406 208.507812 148.789062 " fill-opacity="1" fill-rule="nonzero"/><path fill="#ffffff" d="M 261.375 164.949219 C 259.164062 168.578125 256.1875 170.394531 252.453125 170.394531 C 248.636719 170.394531 245.625 168.578125 243.414062 164.949219 C 241.207031 161.316406 240.105469 155.574219 240.105469 147.71875 C 240.105469 146.957031 240.113281 146.222656 240.140625 145.5 C 240.195312 143.527344 240.328125 141.707031 240.535156 140.03125 C 241.042969 135.992188 242 132.816406 243.414062 130.496094 C 245.625 126.863281 248.636719 125.050781 252.453125 125.050781 C 256.1875 125.050781 259.164062 126.863281 261.375 130.496094 C 263.105469 133.351562 264.164062 137.511719 264.527344 142.984375 C 264.632812 144.46875 264.683594 146.042969 264.683594 147.71875 C 264.683594 148.074219 264.683594 148.433594 264.675781 148.78125 C 264.582031 156.09375 263.472656 161.480469 261.375 164.949219 Z M 287.011719 146.953125 C 286.929688 138.820312 285.457031 131.769531 282.585938 125.777344 C 279.628906 119.605469 275.53125 114.910156 270.292969 111.6875 C 265.058594 108.472656 259.113281 106.867188 252.453125 106.867188 C 245.714844 106.867188 239.734375 108.472656 234.496094 111.6875 C 229.25 114.910156 225.15625 119.605469 222.203125 125.777344 C 220.402344 129.527344 219.152344 133.695312 218.460938 138.285156 C 218.1875 140.003906 218 141.78125 217.898438 143.621094 C 217.808594 144.949219 217.769531 146.320312 217.769531 147.71875 C 217.769531 156.175781 219.242188 163.488281 222.203125 169.664062 C 225.15625 175.839844 229.25 180.535156 234.496094 183.75 C 239.734375 186.96875 245.714844 188.578125 252.453125 188.578125 C 259.113281 188.578125 265.058594 186.96875 270.292969 183.75 C 275.53125 180.535156 279.628906 175.839844 282.585938 169.664062 C 284.890625 164.851562 286.296875 159.347656 286.800781 153.140625 C 286.941406 151.394531 287.019531 149.585938 287.019531 147.71875 C 287.019531 147.464844 287.019531 147.203125 287.011719 146.953125 " fill-opacity="1" fill-rule="nonzero"/><g clip-path="url(#cba93fe240)"><path fill="#ffffff" d="M 219.394531 233.644531 L 208.597656 239.664062 L 208.171875 239.90625 L 197.882812 245.644531 L 176.363281 257.628906 L 176.363281 209.667969 L 197.882812 221.660156 L 205.511719 225.914062 L 206.394531 226.40625 L 219.324219 233.605469 L 219.394531 233.644531 " fill-opacity="1" fill-rule="nonzero"/></g><g clip-path="url(#6d0eed2be1)"><path fill="#ffffff" d="M 307.601562 111.300781 C 304.027344 111.300781 301.125 114.207031 301.125 117.78125 C 301.125 121.351562 304.027344 124.257812 307.601562 124.257812 C 311.171875 124.257812 314.078125 121.351562 314.078125 117.78125 C 314.078125 114.207031 311.171875 111.300781 307.601562 111.300781 Z M 307.601562 133.183594 C 299.105469 133.183594 292.199219 126.273438 292.199219 117.78125 C 292.199219 109.285156 299.105469 102.375 307.601562 102.375 C 316.097656 102.375 323.003906 109.285156 323.003906 117.78125 C 323.003906 126.273438 316.097656 133.183594 307.601562 133.183594 " fill-opacity="1" fill-rule="nonzero"/></g></svg>