<svg xmlns="http://www.w3.org/2000/svg" xmlns:xlink="http://www.w3.org/1999/xlink" width="480" zoomAndPan="magnify" viewBox="0 0 360 359.999987" height="480" preserveAspectRatio="xMidYMid meet" version="1.0"><path fill="#ffffff" d="M 0 114.351562 C 10.589844 86.824219 21.175781 59.292969 36 33.882812 C 42.351562 19.058594 52.941406 0 173.648438 0 C 264.707031 0 343.058594 0 360 0 L 360 63.53125 L 281.648438 63.53125 C 260.46875 290.117188 268.941406 296.46875 304.941406 296.46875 C 328.234375 296.46875 345.175781 260.46875 345.175781 241.410156 L 360 241.410156 C 360 345.175781 313.410156 360 277.410156 360 C 237.175781 360 211.765625 330.351562 211.765625 285.882812 C 211.765625 228.707031 224.46875 163.058594 235.058594 63.53125 L 158.824219 63.53125 C 137.648438 290.117188 133.410156 360 63.53125 360 C 46.589844 360 21.175781 347.292969 21.175781 315.53125 C 21.175781 252 97.410156 328.234375 118.589844 63.53125 C 118.589844 63.53125 97.410156 63.53125 86.824219 63.53125 C 59.292969 63.53125 38.117188 74.117188 21.175781 105.882812 C 16.941406 114.351562 12.707031 118.589844 0 114.351562 Z M 0 114.351562 " fill-opacity="1" fill-rule="nonzero"/></svg>